<?xml version="1.0" encoding="utf-8"?>
<!-- Generator: Adobe Illustrator 17.0.0, SVG Export Plug-In . SVG Version: 6.00 Build 0)  -->
<!DOCTYPE svg PUBLIC "-//W3C//DTD SVG 1.1//EN" "http://www.w3.org/Graphics/SVG/1.1/DTD/svg11.dtd">
<svg version="1.1" id="Layer_1" xmlns="http://www.w3.org/2000/svg" xmlns:xlink="http://www.w3.org/1999/xlink" x="0px" y="0px"
	 width="50px" height="120px" viewBox="0 0 50 120" enable-background="new 0 0 50 120" xml:space="preserve">
<path fill-rule="evenodd" clip-rule="evenodd" fill="none" d="M16.041,96.89l-4.949-15.407l-1.877,1.712L5.461,98.602L0,96.719
	V69.843l7.338-5.478c0,0-0.171-0.913-0.171-1.369c-0.207-1.521-0.331-2.261-0.512-3.595c-0.291-2.147-0.54-4.578-0.683-7.019
	c0-0.799-0.171-1.427-0.171-2.225c-0.187-3.355-0.137-9.582,0.171-12.668c0-0.628,0.205-2.364,0.341-3.252
	c0.455-2.682,0.74-4.166,1.194-6.847c1.937-6.881,4.049-12.614,7.509-17.803c1.685-2.527,3.699-5.08,5.802-7.19
	c0.798-0.8,1.507-1.418,2.56-2.054c0.928-0.515,3.114-0.29,3.925,0.342c0.65,0.506,1.604,1.633,2.218,2.397
	c0.577,0.716,1.373,1.635,1.877,2.225c1.327,1.555,2.269,2.898,3.413,4.622c3.413,5.144,5.529,10.893,7.508,17.632
	c0.455,2.739,0.91,5.478,1.365,8.217c0.083,1.087,0.306,3.335,0.341,4.28c0.185,2.525,0.17,3.237,0.171,5.991
	c0,1.027,0,1.541,0,2.568c-0.251,2.556-0.295,3.831-0.512,5.82c-0.281,2.573-1.024,9.757-1.024,9.757L50,69.672v27.047
	c0,0-5.745,1.883-5.802,1.883c-0.066-1.446-3.754-15.578-3.754-15.578l-1.536-1.369c0,0-1.138,4.096-2.55,8.27
	c-0.885,2.614-2.74,6.966-2.74,6.966H16.041z"/>
</svg>
