<?xml version="1.0" encoding="utf-8"?>
<!-- Generator: Adobe Illustrator 17.0.0, SVG Export Plug-In . SVG Version: 6.00 Build 0)  -->
<!DOCTYPE svg PUBLIC "-//W3C//DTD SVG 1.1//EN" "http://www.w3.org/Graphics/SVG/1.1/DTD/svg11.dtd">
<svg version="1.1" id="Layer_1" xmlns="http://www.w3.org/2000/svg" xmlns:xlink="http://www.w3.org/1999/xlink" x="0px" y="0px"
	 width="50px" height="120px" viewBox="0 0 50 120" enable-background="new 0 0 50 120" xml:space="preserve">
<path fill-rule="evenodd" clip-rule="evenodd" fill="#4AA0D8" d="M13.533,89.076c0,0-0.037-0.114-0.056-0.17
	c-1.216-3.708-2.139-7.029-2.139-7.029s-2.224-8.695-2.732-11.297c-0.508-2.602-0.919-4.634-1.195-7.018
	c-0.276-2.382-0.597-5.027-0.888-7.607c-0.224-1.988-0.226-3.581-0.478-6.942c0-1.027-0.171-1.883-0.171-2.91
	c0-2.754-0.014-2.781,0.171-5.306c0.021-0.744,0.351-2.821,0.512-4.964c0.459-2.788,0.911-5.477,1.366-8.216
	c1.98-6.738,3.927-12.487,7.342-17.63c1.144-1.724,2.087-3.067,3.415-4.621c0.504-0.59,1.301-1.509,1.878-2.225
	c0.615-0.763,1.569-1.89,2.22-2.396c0.812-0.632,2.049-0.685,2.049-0.685h0.341c0,0,1.237,0.053,2.049,0.685
	c0.65,0.506,1.605,1.633,2.22,2.396c0.577,0.716,1.374,1.635,1.878,2.225c1.328,1.555,2.27,2.898,3.415,4.621
	c3.415,5.143,5.362,10.892,7.342,17.63c0.455,2.738,0.907,5.427,1.366,8.216c0.161,2.143,0.491,4.22,0.512,4.964
	c0.185,2.525,0.171,2.552,0.171,5.306c0,1.027-0.171,1.883-0.171,2.91c-0.251,3.361-0.253,4.954-0.478,6.942
	c-0.291,2.579-0.612,5.224-0.888,7.607c-0.276,2.384-0.687,4.416-1.195,7.018c-0.508,2.602-2.732,11.297-2.732,11.297
	s-0.894,3.215-2.08,6.849c-0.037,0.114-0.113,0.344-0.113,0.344L13.533,89.076z"/>
<path fill-rule="evenodd" clip-rule="evenodd" fill="#397AA7" d="M13.533,89.076c0,0,0.236,0.712,0.357,1.07
	c0.885,2.614,2.571,6.794,2.571,6.794h17.074c0,0,1.685-4.18,2.571-6.794c0.122-0.36,0.359-1.075,0.359-1.075L13.533,89.076z"/>
<path fill-rule="evenodd" clip-rule="evenodd" fill="#CCCCCC" d="M42.493,64.304c0,0-0.649,3.948-1.104,6.277
	c-0.447,2.29-2.643,10.948-2.643,10.948l1.789,1.547l3.756,15.233l5.635-1.712V69.896L42.493,64.304z"/>
<path fill-rule="evenodd" clip-rule="evenodd" fill="#CCCCCC" d="M7.502,64.304c0,0,0.649,3.948,1.104,6.277
	c0.447,2.29,2.643,10.948,2.643,10.948L9.46,83.075L5.703,98.309l-5.635-1.712V69.896L7.502,64.304z"/>
</svg>
