<?xml version="1.0" encoding="utf-8"?>
<!-- Generator: Adobe Illustrator 17.0.0, SVG Export Plug-In . SVG Version: 6.00 Build 0)  -->
<!DOCTYPE svg PUBLIC "-//W3C//DTD SVG 1.1//EN" "http://www.w3.org/Graphics/SVG/1.1/DTD/svg11.dtd">
<svg version="1.1" id="Layer_1" xmlns="http://www.w3.org/2000/svg" xmlns:xlink="http://www.w3.org/1999/xlink" x="0px" y="100px"
	 width="16.904px" height="22.936px" viewBox="0 0 16.904 22.936" enable-background="new 0 0 16.904 22.936" xml:space="preserve">
<path fill-rule="evenodd" clip-rule="evenodd" fill="#FFCC67" d="M0,0c0,0,0.349,3.61,0.512,4.792
	C0.587,5.336,0.87,7.545,1.195,9.585c0.382,2.397,0.82,4.688,1.024,5.648c0.379,1.778,0.703,2.832,1.537,4.279
	c0.833,1.447,2.03,2.449,2.903,2.91c0.872,0.46,1.707,0.513,1.707,0.513h0.171c0,0,0.835-0.053,1.707-0.513
	c0.872-0.46,2.069-1.462,2.903-2.91c0.833-1.447,1.158-2.501,1.537-4.279c0.205-0.96,0.643-3.251,1.024-5.648
	c0.325-2.04,0.608-4.249,0.683-4.792C16.555,3.61,16.904,0,16.904,0H0z"/>
<path fill-rule="evenodd" clip-rule="evenodd" fill="#ED7061" d="M3.756,0c0,0,0.19,2.667,0.279,3.541
	c0.041,0.402,0.195,2.034,0.373,3.541c0.208,1.771,0.447,3.464,0.559,4.173c0.207,1.313,0.384,2.092,0.838,3.161
	c0.455,1.069,1.107,1.81,1.583,2.15c0.476,0.34,0.931,0.379,0.931,0.379h0.093c0,0,0.455-0.039,0.931-0.379
	c0.476-0.34,1.129-1.08,1.583-2.15c0.455-1.069,0.631-1.848,0.838-3.161c0.112-0.709,0.351-2.402,0.559-4.173
	c0.177-1.507,0.332-3.139,0.373-3.541C12.786,2.667,12.977,0,12.977,0H3.756z"/>
</svg>
